<svg width="17" height="13" viewBox="0 0 17 13" fill="none" xmlns="http://www.w3.org/2000/svg">
<path d="M15.625 0H0.625C0.45924 0 0.300268 0.0658481 0.183058 0.183058C0.065848 0.300269 0 0.45924 0 0.625V11.25C0 11.5815 0.131696 11.8995 0.366116 12.1339C0.600537 12.3683 0.918479 12.5 1.25 12.5H15C15.3315 12.5 15.6495 12.3683 15.8839 12.1339C16.1183 11.8995 16.25 11.5815 16.25 11.25V0.625C16.25 0.45924 16.1842 0.300269 16.0669 0.183058C15.9497 0.0658481 15.7908 0 15.625 0ZM1.25 5H4.375V7.5H1.25V5ZM5.625 5H15V7.5H5.625V5ZM15 1.25V3.75H1.25V1.25H15ZM1.25 8.75H4.375V11.25H1.25V8.75ZM15 11.25H5.625V8.75H15V11.25Z" fill="#687076"/>
</svg>
