<svg width="14" height="13" viewBox="0 0 14 13" fill="none" xmlns="http://www.w3.org/2000/svg">
<path d="M12.3214 0H1.0268C0.754483 0 0.493316 0.108179 0.300756 0.300739C0.108197 0.493298 1.78785e-05 0.754465 1.78785e-05 1.02679V11.2946C-0.00114229 11.4904 0.0541848 11.6822 0.159362 11.8473C0.26454 12.0123 0.415102 12.1436 0.592987 12.2252C0.728919 12.2883 0.876935 12.3211 1.0268 12.3214C1.26784 12.3209 1.50089 12.2349 1.68459 12.0789C1.68765 12.0769 1.69045 12.0745 1.69293 12.0718L3.7542 10.2679H12.3214C12.5938 10.2679 12.8549 10.1597 13.0475 9.96712C13.2401 9.77456 13.3482 9.51339 13.3482 9.24107V1.02679C13.3482 0.754465 13.2401 0.493298 13.0475 0.300739C12.8549 0.108179 12.5938 0 12.3214 0ZM12.3214 9.24107H3.7542C3.51241 9.24096 3.27833 9.32618 3.09321 9.48172L3.08551 9.48878L1.0268 11.2946V1.02679H12.3214V9.24107ZM4.10716 4.10714C4.10716 3.97098 4.16125 3.8404 4.25753 3.74412C4.35381 3.64784 4.48439 3.59375 4.62055 3.59375H8.7277C8.86386 3.59375 8.99444 3.64784 9.09072 3.74412C9.187 3.8404 9.24109 3.97098 9.24109 4.10714C9.24109 4.2433 9.187 4.37389 9.09072 4.47017C8.99444 4.56645 8.86386 4.62054 8.7277 4.62054H4.62055C4.48439 4.62054 4.35381 4.56645 4.25753 4.47017C4.16125 4.37389 4.10716 4.2433 4.10716 4.10714ZM4.10716 6.16071C4.10716 6.02455 4.16125 5.89397 4.25753 5.79769C4.35381 5.70141 4.48439 5.64732 4.62055 5.64732H8.7277C8.86386 5.64732 8.99444 5.70141 9.09072 5.79769C9.187 5.89397 9.24109 6.02455 9.24109 6.16071C9.24109 6.29687 9.187 6.42746 9.09072 6.52374C8.99444 6.62002 8.86386 6.67411 8.7277 6.67411H4.62055C4.48439 6.67411 4.35381 6.62002 4.25753 6.52374C4.16125 6.42746 4.10716 6.29687 4.10716 6.16071Z" fill="#6D57CA"/>
</svg>
