<svg width="28" height="28" viewBox="0 0 28 28" fill="none" xmlns="http://www.w3.org/2000/svg">
<rect x="0.5" y="0.5" width="27" height="27" rx="13.5" fill="#EDEDED"/>
<rect x="0.5" y="0.5" width="27" height="27" rx="13.5" stroke="#DADDE0"/>
<path d="M20.875 7.75H7.12502C6.7935 7.75 6.47556 7.8817 6.24114 8.11612C6.00672 8.35054 5.87502 8.66848 5.87502 9V21.5C5.87361 21.7383 5.94096 21.9719 6.06901 22.1728C6.19705 22.3737 6.38034 22.5335 6.5969 22.6328C6.76238 22.7096 6.94257 22.7496 7.12502 22.75C7.41846 22.7493 7.70217 22.6447 7.9258 22.4547C7.92953 22.4523 7.93294 22.4494 7.93596 22.4461L10.4453 20.25H20.875C21.2065 20.25 21.5245 20.1183 21.7589 19.8839C21.9933 19.6495 22.125 19.3315 22.125 19V9C22.125 8.66848 21.9933 8.35054 21.7589 8.11612C21.5245 7.8817 21.2065 7.75 20.875 7.75ZM20.875 19H10.4453C10.151 18.9999 9.86601 19.1036 9.64065 19.293L9.63127 19.3016L7.12502 21.5V9H20.875V19ZM10.875 12.75C10.875 12.5842 10.9409 12.4253 11.0581 12.3081C11.1753 12.1908 11.3343 12.125 11.5 12.125H16.5C16.6658 12.125 16.8248 12.1908 16.942 12.3081C17.0592 12.4253 17.125 12.5842 17.125 12.75C17.125 12.9158 17.0592 13.0747 16.942 13.1919C16.8248 13.3092 16.6658 13.375 16.5 13.375H11.5C11.3343 13.375 11.1753 13.3092 11.0581 13.1919C10.9409 13.0747 10.875 12.9158 10.875 12.75ZM10.875 15.25C10.875 15.0842 10.9409 14.9253 11.0581 14.8081C11.1753 14.6908 11.3343 14.625 11.5 14.625H16.5C16.6658 14.625 16.8248 14.6908 16.942 14.8081C17.0592 14.9253 17.125 15.0842 17.125 15.25C17.125 15.4158 17.0592 15.5747 16.942 15.6919C16.8248 15.8092 16.6658 15.875 16.5 15.875H11.5C11.3343 15.875 11.1753 15.8092 11.0581 15.6919C10.9409 15.5747 10.875 15.4158 10.875 15.25Z" fill="#687076"/>
</svg>
