<svg width="17" height="17" viewBox="0 0 17 17" fill="none" xmlns="http://www.w3.org/2000/svg">
<path d="M7.71979 16.281C7.78945 16.3508 7.87216 16.4061 7.96321 16.4438C8.05426 16.4816 8.15186 16.501 8.25042 16.501C8.34898 16.501 8.44657 16.4816 8.53762 16.4438C8.62867 16.4061 8.71139 16.3508 8.78104 16.281L16.281 8.78104C16.3508 8.71139 16.4061 8.62867 16.4438 8.53762C16.4816 8.44657 16.501 8.34898 16.501 8.25042C16.501 8.15186 16.4816 8.05426 16.4438 7.96321C16.4061 7.87216 16.3508 7.78945 16.281 7.71979L8.78104 0.219792C8.64031 0.0790615 8.44944 0 8.25042 0C8.05139 0 7.86052 0.0790615 7.71979 0.219792C7.57906 0.360523 7.5 0.551394 7.5 0.750417C7.5 0.94944 7.57906 1.14031 7.71979 1.28104L14.6901 8.25042L7.71979 15.2198C7.65006 15.2894 7.59474 15.3722 7.557 15.4632C7.51925 15.5543 7.49983 15.6519 7.49983 15.7504C7.49983 15.849 7.51925 15.9466 7.557 16.0376C7.59474 16.1287 7.65006 16.2114 7.71979 16.281ZM8.78104 7.71979C8.85077 7.78945 8.90609 7.87216 8.94384 7.96321C8.98158 8.05426 9.00101 8.15186 9.00101 8.25042C9.00101 8.34898 8.98158 8.44657 8.94384 8.53762C8.90609 8.62867 8.85077 8.71139 8.78104 8.78104L1.28104 16.281C1.14031 16.4218 0.94944 16.5008 0.750417 16.5008C0.551394 16.5008 0.360523 16.4218 0.219792 16.281C0.0790615 16.1403 3.92322e-09 15.9494 0 15.7504C-3.92322e-09 15.5514 0.0790615 15.3605 0.219792 15.2198L7.1901 8.25042L0.219792 1.28104C0.0790615 1.14031 -1.48284e-09 0.94944 0 0.750417C1.48284e-09 0.551394 0.0790615 0.360523 0.219792 0.219792C0.360523 0.0790615 0.551394 1.48284e-09 0.750417 0C0.94944 -1.48284e-09 1.14031 0.0790615 1.28104 0.219792L8.78104 7.71979Z" fill="#151718"/>
</svg>
