<svg width="16" height="10" viewBox="0 0 16 10" fill="none" xmlns="http://www.w3.org/2000/svg">
<path d="M0.989558 6.60214C1.67301 3.32689 4.52484 1 7.73048 1C10.9361 1 13.7879 3.32688 14.4714 6.60215C14.5278 6.87246 14.7927 7.04587 15.063 6.98946C15.3333 6.93304 15.5067 6.66817 15.4503 6.39785C14.673 2.67312 11.4239 0 7.73048 0C4.03707 0 0.78789 2.67311 0.0106435 6.39786C-0.0457642 6.66818 0.127646 6.93305 0.397965 6.98946C0.668285 7.04587 0.93315 6.87246 0.989558 6.60214ZM7.73047 3C5.79747 3 4.23047 4.567 4.23047 6.5C4.23047 8.433 5.79747 10 7.73047 10C9.66347 10 11.2305 8.433 11.2305 6.5C11.2305 4.567 9.66347 3 7.73047 3ZM5.23047 6.5C5.23047 5.11929 6.34976 4 7.73047 4C9.11118 4 10.2305 5.11929 10.2305 6.5C10.2305 7.88071 9.11118 9 7.73047 9C6.34976 9 5.23047 7.88071 5.23047 6.5Z" fill="#151718"/>
</svg>
