<svg width="14" height="14" viewBox="0 0 14 14" fill="none" xmlns="http://www.w3.org/2000/svg">
<path fill-rule="evenodd" clip-rule="evenodd" d="M1.27273 14C0.585795 14 0.0289256 13.4431 0.0289256 12.7562V1.2438C0.0289256 0.556869 0.585795 0 1.27273 0C1.95966 0 2.51653 0.556869 2.51653 1.2438V12.7562C2.51653 13.4431 1.95966 14 1.27273 14Z" fill="#687076"/>
<path fill-rule="evenodd" clip-rule="evenodd" d="M5.09304 14C4.40611 14 3.84924 13.4431 3.84924 12.7562V3.78921C3.84924 3.10228 4.40611 2.54541 5.09304 2.54541C5.77997 2.54541 6.33684 3.10228 6.33684 3.78921V12.7562C6.33684 13.4431 5.77997 14 5.09304 14Z" fill="#687076"/>
<path fill-rule="evenodd" clip-rule="evenodd" d="M8.87661 13.9999C8.18968 13.9999 7.63281 13.443 7.63281 12.7561V6.33462C7.63281 5.64769 8.18968 5.09082 8.87661 5.09082C9.56355 5.09082 10.1204 5.64769 10.1204 6.33462V12.7561C10.1204 13.443 9.56355 13.9999 8.87661 13.9999Z" fill="#687076"/>
</svg>
