<svg width="14" height="17" viewBox="0 0 14 17" fill="none" xmlns="http://www.w3.org/2000/svg">
<path d="M13.5672 3.30781L10.4422 0.182813C10.3841 0.124791 10.3152 0.0787825 10.2393 0.0474149C10.1634 0.0160474 10.0821 -6.43662e-05 10 1.93249e-07H3.75C3.41848 1.93249e-07 3.10054 0.131696 2.86612 0.366117C2.6317 0.600537 2.5 0.91848 2.5 1.25V2.5H1.25C0.918479 2.5 0.600537 2.6317 0.366116 2.86612C0.131696 3.10054 0 3.41848 0 3.75V15C0 15.3315 0.131696 15.6495 0.366116 15.8839C0.600537 16.1183 0.918479 16.25 1.25 16.25H10C10.3315 16.25 10.6495 16.1183 10.8839 15.8839C11.1183 15.6495 11.25 15.3315 11.25 15V13.75H12.5C12.8315 13.75 13.1495 13.6183 13.3839 13.3839C13.6183 13.1495 13.75 12.8315 13.75 12.5V3.75C13.7501 3.6679 13.734 3.58659 13.7026 3.51072C13.6712 3.43485 13.6252 3.3659 13.5672 3.30781ZM10 15H1.25V3.75H7.24141L10 6.50859V13.1125C10 13.1172 10 13.1211 10 13.125C10 13.1289 10 13.1328 10 13.1375V15ZM12.5 12.5H11.25V6.25C11.2501 6.1679 11.234 6.08659 11.2026 6.01072C11.1712 5.93485 11.1252 5.8659 11.0672 5.80781L7.94219 2.68281C7.8841 2.62479 7.81515 2.57878 7.73928 2.54741C7.66341 2.51605 7.5821 2.49994 7.5 2.5H3.75V1.25H9.74141L12.5 4.00859V12.5ZM8.125 10C8.125 10.1658 8.05915 10.3247 7.94194 10.4419C7.82473 10.5592 7.66576 10.625 7.5 10.625H3.75C3.58424 10.625 3.42527 10.5592 3.30806 10.4419C3.19085 10.3247 3.125 10.1658 3.125 10C3.125 9.83424 3.19085 9.67527 3.30806 9.55806C3.42527 9.44085 3.58424 9.375 3.75 9.375H7.5C7.66576 9.375 7.82473 9.44085 7.94194 9.55806C8.05915 9.67527 8.125 9.83424 8.125 10ZM8.125 12.5C8.125 12.6658 8.05915 12.8247 7.94194 12.9419C7.82473 13.0592 7.66576 13.125 7.5 13.125H3.75C3.58424 13.125 3.42527 13.0592 3.30806 12.9419C3.19085 12.8247 3.125 12.6658 3.125 12.5C3.125 12.3342 3.19085 12.1753 3.30806 12.0581C3.42527 11.9408 3.58424 11.875 3.75 11.875H7.5C7.66576 11.875 7.82473 11.9408 7.94194 12.0581C8.05915 12.1753 8.125 12.3342 8.125 12.5Z" fill="#687076"/>
</svg>
