<svg width="20" height="17" viewBox="0 0 20 17" fill="none" xmlns="http://www.w3.org/2000/svg">
<path d="M19.8175 8.57156L17.9425 10.4466C17.8845 10.5047 17.8156 10.5508 17.7397 10.5822C17.6638 10.6137 17.5825 10.6299 17.5003 10.6299C17.4182 10.6299 17.3369 10.6137 17.261 10.5822C17.1851 10.5508 17.1162 10.5047 17.0582 10.4466L15.1832 8.57156C15.0659 8.45429 15 8.29523 15 8.12937C15 7.96352 15.0659 7.80446 15.1832 7.68719C15.3004 7.56991 15.4595 7.50403 15.6253 7.50403C15.7912 7.50403 15.9503 7.56991 16.0675 7.68719L16.8753 8.49578V8.12937C16.8761 6.67362 16.4147 5.25521 15.5576 4.07848C14.7006 2.90174 13.4921 2.02743 12.1064 1.58149C10.7206 1.13556 9.22902 1.14101 7.84655 1.59707C6.46407 2.05313 5.26205 2.93625 4.41363 4.11922C4.31687 4.2539 4.17057 4.34462 4.00691 4.37144C3.84326 4.39825 3.67565 4.35895 3.54097 4.26219C3.40629 4.16542 3.31557 4.01912 3.28876 3.85547C3.26194 3.69181 3.30124 3.52421 3.398 3.38953C4.40073 1.9915 5.82135 0.947847 7.45521 0.40892C9.08907 -0.130007 10.8518 -0.136389 12.4896 0.390695C14.1273 0.917778 15.5554 1.95112 16.5682 3.34185C17.5811 4.73259 18.1263 6.40893 18.1253 8.12937V8.49578L18.9332 7.68719C19.0504 7.56991 19.2095 7.50403 19.3753 7.50403C19.5412 7.50403 19.7003 7.56991 19.8175 7.68719C19.9348 7.80446 20.0007 7.96352 20.0007 8.12937C20.0007 8.29523 19.9348 8.45429 19.8175 8.57156ZM16.6003 12.8684C15.5973 14.2654 14.1769 15.3081 12.5436 15.8464C10.9102 16.3847 9.14822 16.3909 7.51115 15.864C5.87409 15.3371 4.44642 14.3044 3.43366 12.9145C2.4209 11.5246 1.87528 9.84914 1.87535 8.12937V7.76297L1.06754 8.57156C0.95026 8.68884 0.7912 8.75472 0.625348 8.75472C0.459495 8.75472 0.300435 8.68884 0.18316 8.57156C0.0658846 8.45429 0 8.29523 0 8.12937C0 7.96352 0.0658846 7.80446 0.18316 7.68719L2.05816 5.81219C2.11621 5.75408 2.18514 5.70798 2.26101 5.67653C2.33688 5.64507 2.41821 5.62888 2.50035 5.62888C2.58248 5.62888 2.66381 5.64507 2.73969 5.67653C2.81556 5.70798 2.88449 5.75408 2.94253 5.81219L4.81753 7.68719C4.93481 7.80446 5.00069 7.96352 5.00069 8.12937C5.00069 8.29523 4.93481 8.45429 4.81753 8.57156C4.70026 8.68884 4.5412 8.75472 4.37535 8.75472C4.2095 8.75472 4.05044 8.68884 3.93316 8.57156L3.12535 7.76297V8.12937C3.12387 9.81234 3.74242 11.4369 4.86285 12.6927C5.5599 11.6826 6.54005 10.9011 7.68004 10.4466C7.06768 9.96425 6.62084 9.30311 6.40165 8.55507C6.18247 7.80704 6.20183 7.00929 6.45706 6.27277C6.71228 5.53625 7.19067 4.89757 7.82571 4.44554C8.46075 3.99351 9.22086 3.75061 10.0003 3.75061C10.7798 3.75061 11.5399 3.99351 12.175 4.44554C12.81 4.89757 13.2884 5.53625 13.5436 6.27277C13.7989 7.00929 13.8182 7.80704 13.599 8.55507C13.3799 9.30311 12.933 9.96425 12.3207 10.4466C13.4617 10.9012 14.4425 11.6836 15.1394 12.695C15.2974 12.5175 15.4463 12.3321 15.5855 12.1395C15.6823 12.0049 15.8286 11.9141 15.9922 11.8873C16.1559 11.8605 16.3235 11.8998 16.4582 11.9966C16.5928 12.0933 16.6836 12.2396 16.7104 12.4033C16.7372 12.5669 16.6979 12.7345 16.6011 12.8692L16.6003 12.8684ZM10.0003 10.0044C10.4948 10.0044 10.9782 9.85775 11.3893 9.58305C11.8004 9.30835 12.1208 8.9179 12.31 8.46108C12.4993 8.00427 12.5488 7.5016 12.4523 7.01665C12.3558 6.5317 12.1177 6.08624 11.7681 5.73661C11.4185 5.38698 10.973 5.14887 10.4881 5.05241C10.0031 4.95595 9.50045 5.00546 9.04364 5.19468C8.58682 5.3839 8.19638 5.70433 7.92167 6.11545C7.64697 6.52657 7.50035 7.00992 7.50035 7.50437C7.50035 8.16742 7.76374 8.8033 8.23258 9.27214C8.70142 9.74098 9.33731 10.0044 10.0003 10.0044ZM10.0003 15.0044C11.5257 15.0024 13.0073 14.4943 14.2128 13.5598C13.7607 12.8527 13.1378 12.2708 12.4017 11.8677C11.6655 11.4646 10.8397 11.2533 10.0003 11.2533C9.16103 11.2533 8.33522 11.4646 7.59904 11.8677C6.86285 12.2708 6.23998 12.8527 5.78785 13.5598C6.99162 14.4977 8.47438 15.0061 10.0003 15.0044Z" fill="#292929"/>
</svg>
