<svg width="17" height="17" viewBox="0 0 17 17" fill="none" xmlns="http://www.w3.org/2000/svg">
<path d="M15.4701 4.62463C16.3374 6.43854 16.502 8.50941 15.9322 10.4376C15.3625 12.3657 14.0986 14.0145 12.3847 15.0656C10.6708 16.1168 8.62825 16.4958 6.65131 16.1295C4.67437 15.7633 2.90316 14.6777 1.67955 13.0823C0.455931 11.487 -0.133359 9.4949 0.0254109 7.49059C0.184181 5.48628 1.07976 3.61183 2.53929 2.229C3.99882 0.846175 5.91885 0.0530004 7.9288 0.00256183C9.93875 -0.0478768 11.8961 0.647996 13.4232 1.95588L15.1943 0.184002C15.3116 0.066727 15.4706 0.000842388 15.6365 0.000842388C15.8023 0.000842388 15.9614 0.066727 16.0787 0.184002C16.1959 0.301278 16.2618 0.460337 16.2618 0.62619C16.2618 0.792042 16.1959 0.951102 16.0787 1.06838L8.57867 8.56838C8.4614 8.68565 8.30234 8.75154 8.13648 8.75154C7.97063 8.75154 7.81157 8.68565 7.6943 8.56838C7.57702 8.4511 7.51114 8.29204 7.51114 8.12619C7.51114 7.96034 7.57702 7.80128 7.6943 7.684L9.85992 5.51838C9.27301 5.13022 8.57227 4.9515 7.87115 5.01115C7.17002 5.0708 6.50955 5.36533 5.99665 5.84707C5.48375 6.3288 5.14844 6.96954 5.04501 7.66555C4.94158 8.36156 5.07608 9.07212 5.42673 9.68218C5.77738 10.2922 6.32367 10.7661 6.97715 11.0271C7.63063 11.288 8.35306 11.3208 9.02748 11.1201C9.7019 10.9193 10.2888 10.4969 10.6933 9.92107C11.0977 9.34526 11.296 8.6498 11.256 7.94728C11.2514 7.86521 11.263 7.78303 11.2901 7.70543C11.3173 7.62784 11.3594 7.55635 11.4142 7.49505C11.469 7.43374 11.5353 7.38383 11.6094 7.34816C11.6834 7.31248 11.7638 7.29174 11.8459 7.28713C12.0116 7.2778 12.1743 7.33471 12.2981 7.44533C12.3594 7.5001 12.4093 7.56641 12.445 7.64047C12.4807 7.71453 12.5014 7.7949 12.506 7.87697C12.563 8.87133 12.279 9.85537 11.7009 10.6664C11.1229 11.4775 10.2854 12.0671 9.32685 12.3377C8.36832 12.6083 7.34616 12.5437 6.42929 12.1547C5.51242 11.7657 4.75574 11.0754 4.28431 10.1981C3.81288 9.32073 3.65491 8.30878 3.83653 7.32949C4.01815 6.3502 4.52847 5.46219 5.28315 4.81223C6.03784 4.16227 6.9917 3.78926 7.9871 3.75487C8.98249 3.72047 9.95983 4.02675 10.7576 4.62306L12.5349 2.84572C11.2324 1.76431 9.5763 1.20225 7.88465 1.2675C6.193 1.33274 4.58509 2.02069 3.36975 3.19921C2.15442 4.37773 1.41735 5.96372 1.30011 7.65257C1.18287 9.34141 1.69373 11.014 2.73458 12.3492C3.77542 13.6843 5.27285 14.5878 6.93926 14.8862C8.60567 15.1845 10.3236 14.8567 11.763 13.9656C13.2024 13.0746 14.2619 11.6831 14.7379 10.0585C15.2139 8.43387 15.0729 6.69067 14.342 5.16369C14.2705 5.01409 14.2613 4.84222 14.3166 4.68589C14.3718 4.52956 14.4869 4.40158 14.6365 4.3301C14.7861 4.25861 14.958 4.24948 15.1143 4.30472C15.2706 4.35995 15.3986 4.47503 15.4701 4.62463Z" fill="#687076"/>
</svg>
