<svg width="14" height="12" viewBox="0 0 14 12" fill="none" xmlns="http://www.w3.org/2000/svg">
<path d="M9.5 5H12.5C12.7652 5 13.0196 4.89464 13.2071 4.70711C13.3946 4.51957 13.5 4.26522 13.5 4V1C13.5 0.734784 13.3946 0.48043 13.2071 0.292893C13.0196 0.105357 12.7652 0 12.5 0H9.5C9.23478 0 8.98043 0.105357 8.79289 0.292893C8.60536 0.48043 8.5 0.734784 8.5 1V2H8C7.46957 2 6.96086 2.21071 6.58579 2.58579C6.21071 2.96086 6 3.46957 6 4V5.5H4V5C4 4.73478 3.89464 4.48043 3.70711 4.29289C3.51957 4.10536 3.26522 4 3 4H1C0.734784 4 0.48043 4.10536 0.292893 4.29289C0.105357 4.48043 0 4.73478 0 5V7C0 7.26522 0.105357 7.51957 0.292893 7.70711C0.48043 7.89464 0.734784 8 1 8H3C3.26522 8 3.51957 7.89464 3.70711 7.70711C3.89464 7.51957 4 7.26522 4 7V6.5H6V8C6 8.53043 6.21071 9.03914 6.58579 9.41421C6.96086 9.78929 7.46957 10 8 10H8.5V11C8.5 11.2652 8.60536 11.5196 8.79289 11.7071C8.98043 11.8946 9.23478 12 9.5 12H12.5C12.7652 12 13.0196 11.8946 13.2071 11.7071C13.3946 11.5196 13.5 11.2652 13.5 11V8C13.5 7.73478 13.3946 7.48043 13.2071 7.29289C13.0196 7.10536 12.7652 7 12.5 7H9.5C9.23478 7 8.98043 7.10536 8.79289 7.29289C8.60536 7.48043 8.5 7.73478 8.5 8V9H8C7.73478 9 7.48043 8.89464 7.29289 8.70711C7.10536 8.51957 7 8.26522 7 8V4C7 3.73478 7.10536 3.48043 7.29289 3.29289C7.48043 3.10536 7.73478 3 8 3H8.5V4C8.5 4.26522 8.60536 4.51957 8.79289 4.70711C8.98043 4.89464 9.23478 5 9.5 5ZM3 7H1V5H3V7ZM9.5 8H12.5V11H9.5V8ZM9.5 1H12.5V4H9.5V1Z" fill="#0047BA"/>
</svg>
