<svg width="18" height="18" viewBox="0 0 18 18" fill="none" xmlns="http://www.w3.org/2000/svg">
<path d="M14.7656 3.28125V6.5625C14.7656 6.70754 14.708 6.84664 14.6055 6.9492C14.5029 7.05176 14.3638 7.10938 14.2188 7.10938C14.0737 7.10938 13.9346 7.05176 13.8321 6.9492C13.7295 6.84664 13.6719 6.70754 13.6719 6.5625V4.60127L10.2307 8.04316C10.128 8.14578 9.98887 8.20343 9.84375 8.20343C9.69863 8.20343 9.55945 8.14578 9.45684 8.04316C9.35422 7.94055 9.29657 7.80137 9.29657 7.65625C9.29657 7.51113 9.35422 7.37195 9.45684 7.26934L12.8987 3.82813H10.9375C10.7925 3.82813 10.6534 3.77051 10.5508 3.66795C10.4482 3.56539 10.3906 3.42629 10.3906 3.28125C10.3906 3.13621 10.4482 2.99711 10.5508 2.89455C10.6534 2.79199 10.7925 2.73438 10.9375 2.73438H14.2188C14.3638 2.73438 14.5029 2.79199 14.6055 2.89455C14.708 2.99711 14.7656 3.13621 14.7656 3.28125ZM7.26934 9.45684L3.82813 12.8987V10.9375C3.82813 10.7925 3.77051 10.6534 3.66795 10.5508C3.56539 10.4482 3.42629 10.3906 3.28125 10.3906C3.13621 10.3906 2.99711 10.4482 2.89455 10.5508C2.79199 10.6534 2.73438 10.7925 2.73438 10.9375V14.2188C2.73438 14.3638 2.79199 14.5029 2.89455 14.6055C2.99711 14.708 3.13621 14.7656 3.28125 14.7656H6.5625C6.70754 14.7656 6.84664 14.708 6.9492 14.6055C7.05176 14.5029 7.10938 14.3638 7.10938 14.2188C7.10938 14.0737 7.05176 13.9346 6.9492 13.8321C6.84664 13.7295 6.70754 13.6719 6.5625 13.6719H4.60127L8.04316 10.2307C8.14578 10.128 8.20343 9.98887 8.20343 9.84375C8.20343 9.69863 8.14578 9.55945 8.04316 9.45684C7.94055 9.35422 7.80137 9.29657 7.65625 9.29657C7.51113 9.29657 7.37195 9.35422 7.26934 9.45684Z" fill="#151718"/>
</svg>
