<svg width="15" height="12" viewBox="0 0 15 12" fill="none" xmlns="http://www.w3.org/2000/svg">
<path d="M11.3333 10.6667H3.33333C2.8029 10.6667 2.29419 10.456 1.91912 10.0809C1.54405 9.70581 1.33333 9.1971 1.33333 8.66667V3.33333C1.33333 3.15652 1.2631 2.98695 1.13807 2.86193C1.01305 2.7369 0.843478 2.66667 0.666667 2.66667C0.489856 2.66667 0.320286 2.7369 0.195262 2.86193C0.0702379 2.98695 0 3.15652 0 3.33333V8.66667C0 9.55072 0.351189 10.3986 0.976311 11.0237C1.28584 11.3332 1.6533 11.5788 2.05772 11.7463C2.46214 11.9138 2.89559 12 3.33333 12H11.3333C11.5101 12 11.6797 11.9298 11.8047 11.8047C11.9298 11.6797 12 11.5101 12 11.3333C12 11.1565 11.9298 10.987 11.8047 10.8619C11.6797 10.7369 11.5101 10.6667 11.3333 10.6667ZM8.66667 5.33333H6C5.82319 5.33333 5.65362 5.40357 5.5286 5.5286C5.40357 5.65362 5.33333 5.82319 5.33333 6C5.33333 6.17681 5.40357 6.34638 5.5286 6.4714C5.65362 6.59643 5.82319 6.66667 6 6.66667H8.66667C8.84348 6.66667 9.01305 6.59643 9.13807 6.4714C9.2631 6.34638 9.33333 6.17681 9.33333 6C9.33333 5.82319 9.2631 5.65362 9.13807 5.5286C9.01305 5.40357 8.84348 5.33333 8.66667 5.33333ZM14.6667 4.62667C14.6597 4.56542 14.6463 4.50509 14.6267 4.44667V4.38667C14.5946 4.31812 14.5519 4.25511 14.5 4.2V4.2L10.5 0.2C10.4449 0.148144 10.3819 0.105387 10.3133 0.0733333H10.2533C10.1856 0.0344942 10.1108 0.0095628 10.0333 0H4.66667C4.13623 0 3.62753 0.210714 3.25245 0.585787C2.87738 0.960859 2.66667 1.46957 2.66667 2V7.33333C2.66667 7.86377 2.87738 8.37247 3.25245 8.74755C3.62753 9.12262 4.13623 9.33333 4.66667 9.33333H12.6667C13.1971 9.33333 13.7058 9.12262 14.0809 8.74755C14.456 8.37247 14.6667 7.86377 14.6667 7.33333V4.66667C14.6667 4.66667 14.6667 4.66667 14.6667 4.62667ZM10.6667 2.27333L12.3933 4H11.3333C11.1565 4 10.987 3.92976 10.8619 3.80474C10.7369 3.67971 10.6667 3.51014 10.6667 3.33333V2.27333ZM13.3333 7.33333C13.3333 7.51014 13.2631 7.67971 13.1381 7.80474C13.013 7.92976 12.8435 8 12.6667 8H4.66667C4.48986 8 4.32029 7.92976 4.19526 7.80474C4.07024 7.67971 4 7.51014 4 7.33333V2C4 1.82319 4.07024 1.65362 4.19526 1.5286C4.32029 1.40357 4.48986 1.33333 4.66667 1.33333H9.33333V3.33333C9.33333 3.86377 9.54405 4.37247 9.91912 4.74755C10.2942 5.12262 10.8029 5.33333 11.3333 5.33333H13.3333V7.33333ZM6 4H7.33333C7.51014 4 7.67971 3.92976 7.80474 3.80474C7.92976 3.67971 8 3.51014 8 3.33333C8 3.15652 7.92976 2.98695 7.80474 2.86193C7.67971 2.7369 7.51014 2.66667 7.33333 2.66667H6C5.82319 2.66667 5.65362 2.7369 5.5286 2.86193C5.40357 2.98695 5.33333 3.15652 5.33333 3.33333C5.33333 3.51014 5.40357 3.67971 5.5286 3.80474C5.65362 3.92976 5.82319 4 6 4V4Z" fill="#0047BA"/>
</svg>
