<svg width="110" height="110" viewBox="0 0 110 110" fill="none" xmlns="http://www.w3.org/2000/svg">
<g filter="url(#filter0_f_2837_245464)">
<mask id="mask0_2837_245464" style="mask-type:alpha" maskUnits="userSpaceOnUse" x="0" y="0" width="110" height="110">
<circle cx="54.938" cy="54.936" r="54.186" fill="#D9D9D9"/>
</mask>
<g mask="url(#mask0_2837_245464)">
<mask id="mask1_2837_245464" style="mask-type:alpha" maskUnits="userSpaceOnUse" x="-4" y="-7" width="114" height="118">
<path d="M109.057 97.7686C109.156 99.6996 109.164 101.635 109.073 103.565C108.875 107.789 105.18 110.825 100.951 110.827C100.28 110.828 99.6317 110.748 99.0068 110.601C104.62 110.221 109.057 105.551 109.057 99.8408V97.7686ZM19.249 110.63C17.7778 110.772 16.2978 110.834 14.8154 110.808C13.9707 110.805 13.1399 110.744 12.3262 110.63H19.249ZM-3.27148 92.7031C-3.27147 101.856 3.50907 109.399 12.3262 110.63H7.5166C1.55846 110.63 -3.27148 105.799 -3.27148 99.8408V92.7031ZM55.7041 9.37793C61.4493 8.4805 67.326 8.46361 73.0713 9.37793C82.8433 10.9188 92.1084 15.3894 99.7197 21.8916C102.773 24.5044 108.321 22.7605 109.057 19.0186V37.8311C108.985 37.57 108.858 37.3311 108.651 37.1436C108.614 37.1094 108.576 37.0749 108.54 37.04C108.401 36.9071 108.277 36.7591 108.139 36.626C104.884 33.4958 101.225 30.8349 97.3789 28.5635C92.943 25.9897 88.1794 23.9916 83.2197 22.8232C80.8137 22.2645 78.3585 21.96 75.9033 21.7061C67.2118 20.8256 58.3074 21.8916 50.1396 25.1426C46.2373 26.668 42.5243 28.6984 39.0508 31.0674C38.8595 31.1979 38.9321 31.3244 39.1396 31.2217C39.5631 30.9995 39.9898 30.7826 40.4189 30.5713C43.3209 29.1425 46.7069 31.2416 49.3047 33.1689C51.3835 34.7606 54.1172 35.3534 56.6543 34.8115C58.7001 34.3712 60.6316 33.1355 61.8428 31.3408C63.7998 28.4486 66.2623 24.7126 69.7393 25.0381C76.3015 25.6525 82.7627 27.4863 88.6709 30.5107C92.6976 32.5427 96.4788 35.1168 99.9326 38.0801C100.932 38.9365 101.905 39.8273 102.847 40.752C104.824 42.6928 108.491 41.6377 109.057 39.1104V97.7686C108.728 91.3932 107.378 85.0658 105.104 79.126C102.142 71.3876 97.6408 64.2755 91.9609 58.3828C84.9552 51.1355 76.1159 45.8017 66.5566 43.1602C66.3069 43.0956 66.058 43.0259 65.8096 42.957C65.5992 42.8989 65.5362 43.1282 65.7383 43.2109C69.5685 44.7857 73.1538 46.987 76.4111 49.5947C80.3067 52.7273 83.7281 56.5367 86.2979 60.9053C88.7531 65.0538 90.4057 69.6937 91.1914 74.4688C92.108 80.0396 91.8793 85.7631 90.8809 91.2832C90.7426 91.9168 90.5892 92.5473 90.4209 93.1729C88.5979 99.9475 92.4722 109.064 99.0068 110.601C98.7625 110.617 98.5161 110.63 98.2676 110.63H19.249C26.1766 109.961 32.9124 107.478 38.8125 103.679C42.8064 101.122 46.4726 97.955 49.5498 94.2637C52.4634 90.7247 54.9029 86.61 55.9014 82.0381C56.4415 79.3119 56.7354 76.501 56.6045 73.707C56.4081 68.898 55.0008 64.1059 52.3818 60.0928C49.8611 56.1813 46.2274 53.099 42.1025 51.1348C40.3495 50.2894 38.5112 49.6531 36.6396 49.1719C35.7364 48.9396 34.8314 48.5778 33.9014 48.6465C31.1136 48.5925 28.3122 48.4552 25.5488 48.0645C22.6163 47.6499 19.1682 48.3276 18.7119 51.2539C18.5204 52.3208 18.5941 53.3875 18.8018 54.4297C18.8231 54.5366 18.7003 54.6048 18.6299 54.5215C15.5363 50.593 13.9321 45.3103 14.7832 40.2812C15.1761 38.0122 15.8638 35.7259 17.2061 33.8633C19.0317 31.2015 21.3249 28.9381 23.832 26.9668C25.5072 25.6497 27.0198 24.1521 28.6143 22.7383C32.0516 19.4025 36.0294 16.6935 40.2197 14.4922C42.3147 13.4086 44.5082 12.5282 46.7178 11.7324C49.6476 10.6995 52.6433 9.88593 55.7041 9.37793ZM98.2676 -6.14062C100.034 -6.14062 101.701 -5.71378 103.173 -4.96094C102.205 -5.31369 101.159 -5.50586 100.069 -5.50586H47.7383C19.5666 -5.50586 -3.27148 17.3322 -3.27148 45.5039V4.64746C-3.27124 -1.31052 1.55862 -6.14037 7.5166 -6.14062H98.2676ZM109.057 37.8311C109.109 38.0201 109.133 38.2206 109.134 38.4229C109.134 38.6626 109.106 38.8917 109.057 39.1104V37.8311ZM103.173 -4.96094C106.649 -3.69403 109.132 -0.358949 109.134 3.55566C109.136 8.42859 109.138 13.3019 109.139 18.1748C109.139 18.4658 109.11 18.7476 109.057 19.0186V4.64746C109.056 0.456047 106.665 -3.17488 103.173 -4.96094Z" fill="#D9D9D9" fill-opacity="0.47"/>
</mask>
<g mask="url(#mask1_2837_245464)">
<ellipse cx="54.4817" cy="53.5263" rx="54.5774" ry="55.8466" fill="#0047BA"/>
</g>
</g>
</g>
<defs>
<filter id="filter0_f_2837_245464" x="0.000120461" y="-0.00183266" width="109.81" height="109.875" filterUnits="userSpaceOnUse" color-interpolation-filters="sRGB">
<feFlood flood-opacity="0" result="BackgroundImageFix"/>
<feBlend mode="normal" in="SourceGraphic" in2="BackgroundImageFix" result="shape"/>
<feGaussianBlur stdDeviation="0.375916" result="effect1_foregroundBlur_2837_245464"/>
</filter>
</defs>
</svg>
