<svg width="79" height="79" viewBox="0 0 79 79" fill="none" xmlns="http://www.w3.org/2000/svg">
<path opacity="0.16" fill-rule="evenodd" clip-rule="evenodd" d="M39.2168 78.4336C60.8756 78.4336 78.4336 60.8756 78.4336 39.2168C78.4336 17.558 60.8756 0 39.2168 0C29.4995 0 25.8058 11.6551 18.9548 17.5082C10.5355 24.7011 0 27.2752 0 39.2168C0 60.8756 17.558 78.4336 39.2168 78.4336Z" fill="url(#paint0_linear_2582_181718)"/>
<path d="M14.8281 20.3594C14.8281 16.1482 18.242 12.7344 22.4531 12.7344H58.6719C62.8831 12.7344 66.2969 16.1482 66.2969 20.3594V61.3438C66.2969 65.5549 62.8831 68.9688 58.6719 68.9688H22.4531C18.242 68.9688 14.8281 65.5549 14.8281 61.3438V20.3594Z" fill="#ECEDED"/>
<path d="M17.8281 20.1552C17.8281 16.1862 20.8129 12.9688 24.4948 12.9688H56.1615C59.8434 12.9688 62.8281 16.1862 62.8281 20.1552V58.7823C62.8281 62.7513 59.8434 65.9688 56.1615 65.9688H24.4948C20.8129 65.9688 17.8281 62.7513 17.8281 58.7823V20.1552Z" fill="#DCE5F9"/>
<path d="M27.8281 50.2776C27.8281 49.5547 28.4141 48.9688 29.137 48.9688H55.3177C56.0405 48.9688 56.6265 49.5547 56.6265 50.2776C56.6265 51.0004 56.0405 51.5864 55.3177 51.5864H29.137C28.4141 51.5864 27.8281 51.0004 27.8281 50.2776Z" fill="#0047BA"/>
<path d="M27.8281 56.1682C27.8281 55.4454 28.4141 54.8594 29.137 54.8594H46.0279C46.7507 54.8594 47.3367 55.4454 47.3367 56.1682C47.3367 56.8911 46.7507 57.477 46.0279 57.477H29.137C28.4141 57.477 27.8281 56.8911 27.8281 56.1682Z" fill="#0047BA"/>
<path d="M49.1953 56.1682C49.1953 55.4454 49.7813 54.8594 50.5041 54.8594H52.5314C53.2542 54.8594 53.8402 55.4454 53.8402 56.1682C53.8402 56.8911 53.2542 57.477 52.5314 57.477H50.5041C49.7813 57.477 49.1953 56.8911 49.1953 56.1682Z" fill="#0047BA" fill-opacity="0.37"/>
<rect x="31.8281" y="24.9688" width="17.6693" height="17.6693" rx="8.83464" fill="white"/>
<path d="M44.2699 37.4105C44.1902 37.4903 44.082 37.5351 43.9693 37.5351C43.8565 37.5351 43.7483 37.4903 43.6686 37.4105L40.6621 34.404L37.6555 37.4105C37.5758 37.4903 37.4676 37.5351 37.3549 37.5351C37.2421 37.5351 37.134 37.4903 37.0542 37.4105C36.9745 37.3308 36.9297 37.2226 36.9297 37.1099C36.9297 36.9971 36.9745 36.889 37.0542 36.8092L40.0608 33.8027L37.0542 30.7962C36.9745 30.7164 36.9297 30.6083 36.9297 30.4955C36.9297 30.3827 36.9745 30.2746 37.0542 30.1948C37.134 30.1151 37.2421 30.0703 37.3549 30.0703C37.4676 30.0703 37.5758 30.1151 37.6555 30.1948L40.6621 33.2014L43.6686 30.1948C43.7483 30.1151 43.8565 30.0703 43.9693 30.0703C44.082 30.0703 44.1902 30.1151 44.2699 30.1948C44.3496 30.2746 44.3944 30.3827 44.3944 30.4955C44.3944 30.6083 44.3496 30.7164 44.2699 30.7962L41.2634 33.8027L44.2699 36.8092C44.3496 36.889 44.3944 36.9971 44.3944 37.1099C44.3944 37.2226 44.3496 37.3308 44.2699 37.4105Z" fill="#656D78" stroke="#0047BA" stroke-width="0.850376"/>
<rect x="27.8281" y="10.2031" width="26.8328" height="5.96285" rx="2.98142" fill="#ECEDED"/>
<path d="M32.3008 10.9502C32.3008 9.30358 33.6356 7.96875 35.2822 7.96875H47.2079C48.8545 7.96875 50.1893 9.30358 50.1893 10.9502V12.4409H32.3008V10.9502Z" fill="#ECEDED"/>
<defs>
<linearGradient id="paint0_linear_2582_181718" x1="0" y1="0" x2="78.4336" y2="78.4336" gradientUnits="userSpaceOnUse">
<stop stop-color="#4CC3FF" stop-opacity="0.2"/>
<stop offset="1" stop-color="#193E75" stop-opacity="0.2"/>
</linearGradient>
</defs>
</svg>
