<svg width="33" height="54" viewBox="0 0 33 54" fill="none" xmlns="http://www.w3.org/2000/svg">
<path d="M0 0C11.0008 0 22 0 32.9976 0C32.9976 3.55511 33.0024 7.11022 32.9976 10.6653C32.2095 9.58439 31.2629 8.62355 30.2346 7.7732C28.0001 5.92839 25.2804 4.66008 22.4116 4.2229C20.725 3.96347 18.9999 3.96827 17.3133 4.2229C16.4147 4.36702 15.5353 4.59762 14.6752 4.89068C14.0265 5.11648 13.3826 5.3663 12.7675 5.67377C11.5374 6.29831 10.3697 7.06699 9.36061 8.01341C9.12515 8.21519 8.92814 8.4554 8.71671 8.67639C7.68839 9.35379 6.72734 10.1609 6.01136 11.1698C5.61733 11.6982 5.41551 12.3468 5.30018 12.9906C5.05031 14.4174 5.52122 15.9163 6.42941 17.0309C6.45184 17.0565 6.47586 17.0806 6.50149 17.103C6.42461 16.7763 6.39097 16.44 6.45344 16.1037C6.52552 15.6569 6.75136 15.2341 7.09254 14.9315C8.33709 15.2582 9.62971 15.3398 10.9127 15.3638C11.0473 15.3542 11.1866 15.3735 11.3163 15.4215C12.0035 15.5656 12.681 15.7722 13.3201 16.0701C14.5311 16.6274 15.5978 17.5017 16.3378 18.6115C17.1067 19.7501 17.5199 21.1097 17.5776 22.4741C17.616 23.2668 17.5295 24.0643 17.3709 24.8377C17.0778 26.1349 16.3618 27.3023 15.5065 28.3064C14.6031 29.3537 13.5268 30.2521 12.3543 30.9775C10.2544 32.2843 7.7941 33.0433 5.30979 33.0001C3.54146 32.9953 1.76833 33.0001 0 32.9953C0 21.9969 0 10.9984 0 0ZM15.6795 8.69561C18.0773 7.7732 20.6914 7.47054 23.243 7.72036C23.9637 7.79242 24.6845 7.8789 25.3909 8.03744C26.8469 8.36893 28.2452 8.93582 29.5474 9.66606C30.7007 10.3242 31.7963 11.0977 32.7669 12.0105C32.8342 12.097 32.9447 12.1546 32.9976 12.2555C33.0008 13.242 33.0008 14.2285 32.9976 15.2149C32.224 14.1532 31.3061 13.202 30.297 12.366C29.2831 11.5253 28.1731 10.795 26.991 10.2185C24.6605 9.06553 22.0368 8.52266 19.442 8.60914C19.6054 9.23368 19.4853 9.92549 19.1153 10.4539C18.7597 10.9632 18.1926 11.3139 17.592 11.4388C16.8472 11.5925 16.0447 11.4244 15.4344 10.9728C14.9587 10.6317 14.6079 10.1225 14.4734 9.55076C13.7814 9.80058 13.1039 10.0888 12.4504 10.4203C12.3399 10.4732 12.239 10.5452 12.1236 10.5789C13.2288 9.8198 14.4205 9.17123 15.6795 8.69561ZM19.6342 13.6103C19.9273 13.6439 20.2108 13.7352 20.4992 13.8073C23.3054 14.5567 25.9003 16.0701 27.9569 18.1263C29.6243 19.7981 30.9458 21.8159 31.8155 24.0114C32.9399 26.8507 33.2955 30.0023 32.7429 33.0049C30.0231 33.0049 27.3034 33.0097 24.5884 33.0049C26.0973 31.4916 27.1688 29.5459 27.6398 27.4608C27.9329 25.8947 28.0001 24.2708 27.7311 22.6903C27.5004 21.3355 27.0151 20.0191 26.2943 18.8421C25.5399 17.6026 24.5356 16.5217 23.3919 15.6329C22.4357 14.893 21.3833 14.2685 20.2589 13.8217C20.0523 13.74 19.8457 13.668 19.6342 13.6103Z" fill="#0047BA"/>
<path fill-rule="evenodd" clip-rule="evenodd" d="M31.3895 35.4931C31.5102 35.285 31.7515 35.1851 31.9846 35.1851C32.1968 35.1768 32.434 35.1976 32.5922 35.3558C32.717 35.4889 32.7628 35.6762 32.7919 35.8509C32.6421 35.8759 32.4965 35.8925 32.3466 35.9133C32.3217 35.8176 32.3092 35.6928 32.2093 35.6429C32.072 35.5888 31.8764 35.6179 31.8098 35.7594C31.7515 35.9009 31.7765 36.0548 31.7723 36.2005C32.1219 36.2005 32.4701 36.2005 32.8169 36.2005C32.8169 36.3586 32.8169 36.5167 32.8169 36.6748C32.2343 36.6748 31.6517 36.6748 31.069 36.6748C31.0732 36.5125 31.0649 36.3544 31.0774 36.1963C31.1467 36.1991 31.2175 36.2005 31.2896 36.2005C31.2979 35.9633 31.2563 35.7053 31.3895 35.4931ZM6.99453 36.525C7.4523 36.5222 7.91007 36.5222 8.36784 36.525C8.36784 38.8469 8.36784 41.1702 8.36784 43.4949C6.55895 43.4949 4.75007 43.4949 2.94119 43.4949C2.32528 43.5074 1.68856 43.4699 1.12259 43.2036C0.743895 43.0247 0.431779 42.7168 0.256994 42.3381C0.0572404 41.9012 0.0114635 41.4143 0.0322712 40.94C0.0572404 40.4157 0.248671 39.883 0.62321 39.5044C1.08514 39.0383 1.74683 38.8428 2.38354 38.8136C2.43764 39.2006 2.48758 39.5918 2.54168 39.9787C2.21292 40.0162 1.85503 40.0661 1.60117 40.3033C1.3598 40.5405 1.30986 40.9025 1.32651 41.2229C1.33483 41.5225 1.42223 41.8388 1.6636 42.0343C1.91329 42.2382 2.25037 42.2882 2.56249 42.2965C4.03984 42.2965 5.51718 42.2965 6.99869 42.2965C6.99592 40.3713 6.99453 38.4475 6.99453 36.525ZM21.331 36.6665C21.7722 36.6665 22.2133 36.6623 22.6502 36.6665C22.6502 37.1076 22.6502 37.5487 22.6502 37.9897C22.2091 37.9897 21.7694 37.9897 21.331 37.9897C21.331 37.5487 21.3269 37.1076 21.331 36.6665ZM31.3063 37.1783C31.7474 37.1783 32.1885 37.1783 32.6296 37.1783C32.6296 39.2838 32.6296 41.3894 32.6296 43.4949C32.1885 43.4949 31.7474 43.4949 31.3063 43.4949C31.3063 41.3894 31.3063 39.2838 31.3063 37.1783ZM4.32698 38.6097C4.46847 38.3767 4.76394 38.3018 5.02196 38.3185C5.20507 38.3226 5.40482 38.3642 5.53383 38.5057C5.65035 38.6389 5.69197 38.8178 5.71694 38.9884C5.56712 39.0092 5.41731 39.03 5.27165 39.0467C5.25084 38.9593 5.24252 38.8428 5.15513 38.7887C5.0178 38.7221 4.81388 38.7471 4.73897 38.8969C4.67655 39.0342 4.70152 39.1923 4.69736 39.3421C5.04693 39.3421 5.3965 39.3421 5.74607 39.3421C5.74607 39.4974 5.74607 39.6528 5.74607 39.8081C5.16623 39.8081 4.585 39.8081 4.00238 39.8081C4.00238 39.6542 4.00238 39.4961 4.00654 39.3421C4.0759 39.3421 4.14526 39.3421 4.21462 39.3421C4.22294 39.0966 4.18133 38.8303 4.32698 38.6097ZM10.5901 38.8552C11.0812 38.6305 11.6388 38.6056 12.1673 38.6638C12.6043 38.7221 13.0496 38.8844 13.3534 39.2214C13.7321 39.6334 13.8527 40.2076 13.8694 40.7527C13.8736 41.2645 13.8694 41.7805 13.8694 42.2965C16.358 42.2965 18.8424 42.2965 21.331 42.2965C21.3283 41.0759 21.3283 39.8553 21.331 38.6347C21.7694 38.6347 22.2091 38.6347 22.6502 38.6347C22.6502 40.2548 22.6502 41.8748 22.6502 43.4949C19.7247 43.4949 16.7991 43.4949 13.8694 43.4949C13.8694 44.0525 13.7945 44.6225 13.5573 45.1344C13.4449 45.3757 13.2493 45.5713 13.0204 45.7086C12.7957 45.3591 12.5752 45.0054 12.3504 44.6558C12.571 44.3146 12.5419 43.8819 12.5502 43.4949C11.7928 43.5115 10.9938 43.4158 10.3571 42.9747C9.92842 42.6835 9.65375 42.2091 9.53307 41.7098C9.41238 41.1938 9.39574 40.6404 9.53307 40.1244C9.67872 39.5751 10.0741 39.0924 10.5901 38.8552ZM10.9064 40.1868C10.7441 40.5114 10.7358 40.89 10.7899 41.2437C10.8481 41.6057 11.052 41.9636 11.3891 42.1342C11.7428 42.3256 12.159 42.2965 12.5502 42.2965C12.546 41.8887 12.5502 41.4767 12.546 41.069C12.5377 40.8151 12.5294 40.5613 12.4753 40.3158C12.4337 40.1285 12.3379 39.9371 12.159 39.8498C11.9592 39.754 11.7304 39.7499 11.5098 39.7665C11.2559 39.7957 11.0229 39.9538 10.9064 40.1868ZM26.1834 38.8552C26.6204 38.7054 27.0823 38.6472 27.5442 38.6389C28.0103 38.6347 28.4931 38.6971 28.9134 38.9093C29.3129 39.1049 29.6416 39.4378 29.8456 39.8289C30.1618 40.4198 30.2034 41.1022 30.1951 41.7597C30.1951 42.3367 30.1951 42.9151 30.1951 43.4949C28.0089 43.4949 25.8227 43.4949 23.6365 43.4949C23.6365 43.0954 23.6365 42.696 23.6365 42.2965C25.3788 42.2965 27.1211 42.2965 28.8634 42.2965C28.8551 41.818 28.905 41.3269 28.7927 40.8567C28.7303 40.5904 28.6137 40.3241 28.4057 40.141C28.1809 39.9371 27.873 39.8539 27.5734 39.8456C27.2071 39.8331 26.8451 39.9122 26.4997 40.0204C26.3873 39.6334 26.2958 39.2422 26.1834 38.8552ZM22.7085 46.3203C23.4534 46.2454 24.2441 46.3453 24.8808 46.753C25.3885 47.0693 25.7589 47.5645 25.9753 48.1137C26.2375 48.7837 26.2874 49.5202 26.2292 50.2317C26.1667 50.9225 25.9503 51.6174 25.5051 52.1583C25.1929 52.5411 24.7643 52.8199 24.2982 52.9781C23.9154 53.1071 23.5075 53.157 23.0997 53.1487C22.4879 53.1487 21.8596 52.9989 21.3518 52.6493C20.8441 52.3164 20.4821 51.7963 20.2782 51.2304C20.0243 50.5272 19.991 49.7574 20.0826 49.0167C20.1908 48.2177 20.5487 47.4188 21.1979 46.9153C21.6307 46.5741 22.1633 46.3785 22.7085 46.3203ZM22.8209 47.4979C22.6086 47.5312 22.4006 47.6019 22.2258 47.7184C21.922 47.914 21.7305 48.2344 21.6182 48.5673C21.46 49.0416 21.4351 49.5493 21.46 50.0403C21.4892 50.4814 21.5766 50.9308 21.8138 51.3053C21.9719 51.5674 22.2174 51.7713 22.5046 51.8712C22.8542 51.996 23.2412 52.0044 23.6032 51.9253C23.932 51.8546 24.24 51.659 24.4272 51.376C24.7144 50.9599 24.8101 50.4481 24.8309 49.9529C24.8517 49.4536 24.8184 48.9418 24.6353 48.4757C24.5146 48.1637 24.319 47.8724 24.0319 47.6976C23.6698 47.4771 23.2287 47.4438 22.8209 47.4979ZM28.6845 46.6199C29.2796 46.312 29.9704 46.2537 30.6279 46.3286C31.144 46.3869 31.66 46.5741 32.0304 46.9444C32.459 47.3647 32.6712 47.9514 32.7753 48.534C32.3217 48.5923 31.8681 48.6463 31.4186 48.7088C31.3562 48.3676 31.2397 48.018 30.99 47.7642C30.8318 47.5977 30.5988 47.5187 30.3741 47.4896C29.9954 47.4479 29.5917 47.4937 29.2754 47.7184C28.9175 47.9681 28.7219 48.3884 28.6262 48.8045C28.5305 49.2123 28.5222 49.6325 28.543 50.0486C28.5763 50.5563 28.697 51.0848 29.0382 51.4842C29.2754 51.7713 29.6292 51.9503 30.0037 51.9711C30.3325 51.9919 30.6945 51.9461 30.9608 51.7339C31.2522 51.4842 31.3687 51.0931 31.4186 50.7227C31.9069 50.7227 32.3952 50.7227 32.8835 50.7227C32.8377 51.3178 32.6213 51.9128 32.2135 52.3539C31.7848 52.8199 31.1606 53.0696 30.5364 53.132C29.9163 53.1861 29.2629 53.1362 28.697 52.8574C28.2017 52.6202 27.7898 52.2124 27.5359 51.7256C27.2571 51.2013 27.1364 50.6062 27.1073 50.0153C27.074 49.2747 27.1614 48.5049 27.5026 47.8349C27.7565 47.319 28.1685 46.8779 28.6845 46.6199ZM2.45845 46.4659C2.89541 46.4618 3.33237 46.4576 3.7735 46.4659C4.58084 48.6422 5.40066 50.8101 6.21216 52.9822C5.7211 52.9822 5.2342 52.9864 4.74314 52.9822C4.57251 52.4829 4.39773 51.9836 4.22294 51.4801C3.46554 51.4759 2.7123 51.4842 1.9549 51.4801C1.77734 51.9794 1.60395 52.4801 1.43471 52.9822C0.960295 52.9822 0.490041 52.9864 0.015625 52.9822C0.831287 50.8101 1.65111 48.6422 2.45845 46.4659ZM2.99529 48.2802C2.7664 48.9709 2.5292 49.6617 2.30031 50.3524C2.82467 50.3524 3.34486 50.3524 3.86505 50.3524C3.60703 49.5868 3.34486 48.8211 3.08684 48.0513C3.0369 48.1179 3.02442 48.2053 2.99529 48.2802ZM6.99869 46.4618C7.83932 46.4618 8.68134 46.4618 9.52475 46.4618C10.1989 46.4742 10.8981 46.6157 11.4557 47.011C11.8968 47.3148 12.2256 47.7683 12.3962 48.276C12.5627 48.7504 12.6126 49.2622 12.6084 49.7615C12.6001 50.3066 12.5127 50.8559 12.2755 51.3469C12.1424 51.6382 11.9551 51.9045 11.7262 52.125C11.3974 52.4538 10.973 52.6785 10.5318 52.8116C10.0907 52.9406 9.63295 52.9905 9.17934 52.9822C8.45246 52.985 7.72557 52.985 6.99869 52.9822C6.99592 50.8101 6.99592 48.6366 6.99869 46.4618ZM8.36784 47.6269C8.36784 49.025 8.36784 50.419 8.36784 51.8171C8.70076 51.8213 9.03368 51.8171 9.36661 51.8171C9.86183 51.8046 10.382 51.6507 10.7149 51.2678C11.1103 50.8184 11.2018 50.186 11.1935 49.6076C11.1769 49.1166 11.1061 48.6006 10.8023 48.2011C10.5277 47.8349 10.0657 47.6518 9.6163 47.6352C9.20015 47.6185 8.78399 47.631 8.36784 47.6269ZM13.6904 46.4618C14.1024 46.4659 14.5144 46.4576 14.9223 46.4659C15.8045 47.8849 16.6992 49.2955 17.5857 50.7103C17.5898 49.2955 17.5857 47.8765 17.5898 46.4618C18.0309 46.4618 18.4762 46.4659 18.9173 46.4618C18.9215 48.6339 18.9173 50.8101 18.9173 52.9822C18.5137 52.9864 18.11 52.9822 17.7063 52.9864C16.8033 51.5883 15.9252 50.1735 15.0221 48.7795C15.0221 50.1804 15.0221 51.5813 15.0221 52.9822C14.5782 52.9822 14.1343 52.9822 13.6904 52.9822C13.6904 50.8101 13.6904 48.6366 13.6904 46.4618Z" fill="#0047BA"/>
</svg>
